<svg width="626" height="626" viewBox="0 0 626 626" fill="none" xmlns="http://www.w3.org/2000/svg">
<path d="M529.113 360.601C529.135 334.501 525.29 308.543 517.704 283.57L384.361 416.938C379.844 421.464 373.754 424.074 367.361 424.224H211.934C210.513 424.231 209.105 423.965 207.785 423.44C206.471 422.917 205.276 422.135 204.272 421.139C203.268 420.144 202.475 418.956 201.941 417.647C201.407 416.338 201.14 414.936 201.157 413.523V258.272C201.188 251.775 203.789 245.554 208.392 240.969L341.76 107.6C305.391 96.5307 267.063 93.4322 229.387 98.5162C191.712 103.6 155.576 116.747 123.442 137.061C91.3076 157.375 63.9307 184.378 43.1772 216.23C22.4237 248.082 8.78144 284.035 3.18025 321.636C-2.42095 359.238 0.150604 397.605 10.7196 434.123C21.2887 470.641 39.6067 504.451 64.4253 533.249C89.2438 562.047 119.979 585.155 154.537 600.999C189.095 616.843 226.662 625.05 264.679 625.061C415.502 625.061 529.113 501.887 529.113 360.601Z" fill="#0153FF"/>
<path d="M517.654 283.62L384.311 416.963C382.162 419.078 379.651 420.791 376.899 422.023L529.089 359.285C528.946 333.644 525.094 308.158 517.654 283.62Z" fill="url(#paint0_linear)"/>
<path d="M207.684 423.49C209.004 424.015 210.413 424.281 211.833 424.274H367.261C373.654 424.124 379.743 421.514 384.261 416.988L517.604 283.62C504.941 242.128 482.285 204.38 451.625 173.689C420.965 142.999 383.24 120.305 341.761 107.6L208.418 240.968C203.815 245.554 201.214 251.775 201.183 258.272V413.573C201.169 414.982 201.436 416.379 201.971 417.683C202.505 418.986 203.295 420.169 204.295 421.162C205.26 422.155 206.412 422.946 207.684 423.49Z" fill="#13BCFF"/>
<path fill-rule="evenodd" clip-rule="evenodd" d="M341.761 107.601C383.253 120.286 420.995 142.966 451.673 173.649C482.35 204.331 505.025 242.076 517.705 283.57L622.563 178.788C623.427 177.916 624.114 176.885 624.587 175.752C625.53 173.459 625.53 170.886 624.587 168.593C624.114 167.46 623.427 166.429 622.563 165.557L459.723 2.79316C458.858 1.92653 457.831 1.23898 456.7 0.769858C455.569 0.300738 454.357 0.0592651 453.133 0.0592651C451.909 0.0592651 450.696 0.300738 449.566 0.769858C448.435 1.23898 447.408 1.92653 446.543 2.79316L341.761 107.601Z" fill="#5FECFD"/>
<defs>
<linearGradient id="paint0_linear" x1="388.308" y1="426.905" x2="525.926" y2="319.416" gradientUnits="userSpaceOnUse">
<stop stop-color="#0138AD"/>
<stop offset="1" stop-color="#004BE5"/>
</linearGradient>
</defs>
</svg>
