<svg width="293" height="70" viewBox="0 0 293 70" xmlns="http://www.w3.org/2000/svg">
 <defs>
  <style>.cls-1{fill:#fff;}.cls-2{fill:#0153ff;}.cls-3{fill:url(#linear-gradient);}.cls-4{fill:#13bcff;}.cls-5{fill:#5fecfd;fill-rule:evenodd;}</style>
 </defs>
 <g>
  <title>background</title>
  <rect fill="none" id="canvas_background" height="72" width="295" y="-1" x="-1"/>
 </g>
 <g>
  <title>Layer 1</title>
  <g stroke="null" id="Layer_2">
   <g stroke="null" id="Seom">
    <g stroke="null" id="on_a_black_background">
     <path stroke="null" id="svg_1" d="m131.26767,30.75515c-5.01072,-1.88871 -9.71596,-2.74672 -15.73796,-2.74672c-9.9126,0 -15.89597,3.52378 -15.89597,9.46511c0,4.92682 4.31196,7.85432 13.02016,8.77978l3.08649,0.33457c4.3541,0.47757 6.25726,1.25464 6.25726,2.65768c0,1.70253 -2.2543,2.71704 -6.95602,2.71704c-5.67437,0 -9.60009,-1.19258 -12.82703,-2.83576l-4.03105,5.90625c4.91592,2.66038 11.62263,3.40507 16.75275,3.40507c10.92036,0 17.2935,-3.85296 17.2935,-9.82397c0,-4.89714 -4.54722,-7.70592 -12.70765,-8.66106l-3.33229,-0.38044c-3.42007,-0.38853 -6.14139,-0.80945 -6.14139,-2.4796c0,-1.58112 1.9453,-2.628 5.79025,-2.628c4.23822,0.02968 9.0172,1.22496 12.00888,2.36088l3.42007,-6.07084z" class="cls-1"/>
     <path stroke="null" id="svg_2" d="m154.20394,27.97066c-11.2715,0 -19.04567,6.20575 -19.04567,15.3228s8.00592,15.13932 19.55131,15.13932c6.32047,0 11.77713,-1.37336 16.05047,-4.38989l-5.94475,-5.01586a15.22881,11.70188 0 0 1 -9.52283,2.7764c-4.78249,0 -8.58881,-1.82125 -9.67734,-6.00339l26.68641,0a29.23567,22.4648 0 0 0 0.19313,-2.628c-0.02458,-9.01182 -7.44762,-15.20138 -18.29073,-15.20138zm-0.07725,6.72109c4.35059,0 7.26854,2.09107 8.19905,5.79293l-16.67198,0c0.89189,-3.57775 3.69045,-5.78753 8.47294,-5.78753l0,-0.0054z" class="cls-1"/>
     <path stroke="null" id="svg_3" d="m195.7294,27.97066c-11.69637,0 -20.32381,6.51064 -20.32381,15.23106s8.62744,15.23106 20.32381,15.23106s20.40808,-6.51064 20.40808,-15.23106s-8.66957,-15.23106 -20.40808,-15.23106zm0,7.25803c5.71651,0 10.02847,3.28635 10.02847,7.97304s-4.31196,7.97304 -10.02847,7.97304s-9.98634,-3.28635 -9.98634,-7.97573s4.27334,-7.96494 9.98634,-7.96494l0,-0.0054z" class="cls-1"/>
     <path stroke="null" id="svg_4" d="m265.40902,27.97066c-4.91592,0 -9.87046,1.28432 -12.7849,4.9592c-2.52819,-3.0705 -6.99465,-4.9592 -12.43727,-4.9592c-4.27685,0 -8.39569,1.10624 -11.07837,4.18213l0,-3.39967l-9.87046,0l0,28.94036l10.14435,0l0,-15.85973c0,-4.36021 3.6132,-6.54032 7.9673,-6.54032c4.62447,0 7.34579,2.29882 7.34579,6.47556l0,15.91909l10.14435,0l0,-15.85433c0,-4.36021 3.6132,-6.54032 7.9673,-6.54032c4.58585,0 7.34579,2.29882 7.34579,6.47556l0,15.91909l10.10572,0l0,-18.42837c0,-6.70221 -5.98689,-11.28906 -14.84958,-11.28906z" class="cls-1"/>
     <path stroke="null" id="svg_5" d="m81.35004,39.71301a36.68679,28.19028 0 0 0 -1.58363,-8.21587l-18.50843,14.22465a3.44817,2.64958 0 0 1 -2.35964,0.77707l-21.57386,0a1.53798,1.18179 0 0 1 -0.57586,-0.08364a1.45722,1.11973 0 0 1 -0.81113,-0.61788a1.46775,1.12783 0 0 1 -0.10885,-0.4398l0,-16.55855a3.41305,2.6226 0 0 1 1.00425,-1.84554l18.51194,-14.22465a36.70786,28.20647 0 1 0 -10.69914,55.19067c20.93479,0 36.70435,-13.1373 36.70435,-28.20647z" class="cls-2"/>
     <path stroke="null" id="svg_6" d="m79.75939,31.50254l-18.50843,14.22195a3.51137,2.69815 0 0 1 -1.02883,0.53963l21.1244,-6.69141a36.9045,28.35756 0 0 0 -1.58714,-8.07017z" class="cls-3"/>
     <path stroke="null" id="svg_7" d="m36.73458,46.42061a1.53798,1.18179 0 0 0 0.57586,0.08364l21.57386,0a3.44817,2.64958 0 0 0 2.35964,-0.77707l18.50843,-14.22465a36.7816,28.26313 0 0 0 -24.40753,-18.77373l-18.50843,14.22465a3.41305,2.6226 0 0 0 -1.00425,1.84554l0,16.56395a1.46424,1.12513 0 0 0 0.4319,0.80945a1.45371,1.11703 0 0 0 0.47052,0.24823z" class="cls-4"/>
     <path stroke="null" id="svg_8" d="m55.34484,12.7288a36.7816,28.26313 0 0 1 24.42158,18.76834l14.55463,-11.17574a1.32379,1.0172 0 0 0 0.28091,-0.32378a1.30623,1.00371 0 0 0 0,-0.76358a1.32379,1.0172 0 0 0 -0.28091,-0.32378l-22.60269,-17.3599a1.29218,0.99292 0 0 0 -1.82942,0l-14.54409,11.17844z" class="cls-5"/>
    </g>
   </g>
  </g>
 </g>
</svg>
